<svg xmlns="http://www.w3.org/2000/svg" viewBox="0 0 345.99 186.22"><path d="M78.78 50.59V3.21H110v8.25H88v11.11h18.7v8.25H88v11.52h22v8.25zm49.39 0c-7.12 0-10.12-5-10.12-9.92V3.21h8.65v36.93c0 2.06.87 3.13 3.06 3.13h3.33v7.32zM145.14 36c0 4.46 2.73 7.72 7.59 7.72a9.6 9.6 0 0 0 7.85-3.26l5.26 5.12c-3.53 3.53-6.92 5.46-13.18 5.46-8.19 0-16-3.73-16-17.77 0-11.31 6.12-17.7 15.11-17.7 9.65 0 15.11 7.05 15.11 16.57V36zm12.38-9.65a6.46 6.46 0 0 0-11.58 0 9.56 9.56 0 0 0-.8 3.73h13.18a9.56 9.56 0 0 0-.8-3.78zM188.59 51c-6.92 0-15.51-3.73-15.51-17.77s8.59-17.7 15.51-17.7A14.77 14.77 0 0 1 200 20.18L194.19 26c-1.8-1.93-3.33-2.73-5.59-2.73a6 6 0 0 0-4.92 2.26c-1.33 1.66-1.93 4-1.93 7.65s.6 6.06 1.93 7.72a6 6 0 0 0 4.92 2.26c2.26 0 3.79-.8 5.59-2.73l5.81 5.84A14.82 14.82 0 0 1 188.59 51zm29.02-.41c-7.05 0-10-5-10-9.92V23.51h-3.71v-6.59h3.66V6.67h8.65v10.25h6.12v6.59h-6.12v16.63c0 2 .93 3.13 3 3.13h3.13v7.32zm36.34-3.86A14.37 14.37 0 0 1 243.17 51a14.21 14.21 0 0 1-10.71-4.26c-3.13-3.26-3.93-7.19-3.93-13.51s.8-10.18 3.93-13.44a14.21 14.21 0 0 1 10.71-4.26 14.37 14.37 0 0 1 10.78 4.26c3.13 3.26 3.93 7.19 3.93 13.44s-.8 10.24-3.93 13.5zm-6.72-21.9a5.47 5.47 0 0 0-4.06-1.53 5.31 5.31 0 0 0-4 1.53c-1.8 1.8-2 4.79-2 8.39s.2 6.66 2 8.45a5.31 5.31 0 0 0 4 1.53 5.47 5.47 0 0 0 4.06-1.53c1.8-1.8 2-4.86 2-8.45s-.23-6.59-2-8.38zm37.77.54a5.77 5.77 0 0 0-4.59-2.06c-2.66 0-5.59 2-5.59 6.39v20.9h-8.65V15.92h8.45v3.33a11.74 11.74 0 0 1 8.72-3.73 10.46 10.46 0 0 1 8.19 3.26zm28.51 25.22v-3c-2.33 2.33-4.53 3.33-8.52 3.33s-6.79-1-8.85-3.06a11.11 11.11 0 0 1-2.86-7.79c0-5.52 3.79-10 11.85-10h8.19V28.3c0-3.79-1.86-5.46-6.46-5.46-3.33 0-4.86.8-6.66 2.86l-5.52-5.39c3.39-3.73 6.72-4.79 12.51-4.79 9.72 0 14.77 4.13 14.77 12.25v22.82zm-.2-14.59h-6.86c-3.13 0-4.86 1.46-4.86 3.93s1.6 4 5 4c2.4 0 3.93-.2 5.46-1.66.93-.87 1.26-2.26 1.26-4.39zm27.76 14.59c-7.12 0-10.12-5-10.12-9.92V3.21h8.65v36.93c0 2.06.87 3.13 3.06 3.13H346v7.32zm-237.13 60.56l-9.25-18.9H88v18.9h-9.22V63.77h18.57c9.65 0 15.37 6.59 15.37 14.51a12.76 12.76 0 0 1-8.65 12.45l10.58 20.43zM96.75 72H88v12.53h8.72c4.06 0 6.72-2.6 6.72-6.26S100.81 72 96.75 72zm31.68 24.51c0 4.46 2.73 7.72 7.59 7.72a9.6 9.6 0 0 0 7.85-3.26l5.26 5.12c-3.53 3.53-6.92 5.46-13.18 5.46-8.19 0-16-3.73-16-17.77 0-11.31 6.12-17.7 15.11-17.7 9.65 0 15.11 7.05 15.11 16.57v3.86zm12.38-9.65a6.46 6.46 0 0 0-11.58 0 9.56 9.56 0 0 0-.8 3.73h13.18a9.56 9.56 0 0 0-.8-3.73zm27.02-2.8v27.09h-8.65V84.06h-3.59v-6.58h3.59v-4.33c0-4.92 3.06-9.92 10.12-9.92h4.92v7.32h-3.39c-2.06 0-3 1.13-3 3.13v3.79h6.39v6.59zm35.94 23.23a14.37 14.37 0 0 1-10.77 4.26 14.21 14.21 0 0 1-10.71-4.26c-3.13-3.26-3.93-7.19-3.93-13.51s.8-10.18 3.93-13.44A14.21 14.21 0 0 1 193 76.08a14.37 14.37 0 0 1 10.78 4.26c3.13 3.26 3.93 7.19 3.93 13.44s-.81 10.22-3.94 13.51zM197 85.4a5.47 5.47 0 0 0-4-1.53 5.31 5.31 0 0 0-4 1.53c-1.8 1.8-2 4.79-2 8.39s.2 6.66 2 8.45a5.31 5.31 0 0 0 4 1.53 5.47 5.47 0 0 0 4.06-1.53c1.8-1.8 2-4.86 2-8.45s-.22-6.6-2.06-8.39zm37.78.53a5.77 5.77 0 0 0-4.59-2.06c-2.66 0-5.59 2-5.59 6.39v20.9h-8.65V76.48h8.45v3.33a11.74 11.74 0 0 1 8.72-3.73 10.46 10.46 0 0 1 8.19 3.26zm51.78 25.22v-21c0-4.73-3-6.32-5.72-6.32S275 85.46 275 90v21.16h-8.65v-21c0-4.73-3-6.32-5.72-6.32s-5.79 1.6-5.79 6.32v21h-8.65V76.48h8.45v3.19a12.13 12.13 0 0 1 8.65-3.59 10.74 10.74 0 0 1 9.18 4.39 13.22 13.22 0 0 1 10.38-4.39 12.1 12.1 0 0 1 8.52 3.06 13.07 13.07 0 0 1 3.84 9.86v22.16zM92.43 172.11c-7.05 0-11.45-1.93-15.77-6.26l2.53-2.53c4.26 4.26 7.72 5.59 13.44 5.59 7.45 0 12.18-3.59 12.18-9.78a8.58 8.58 0 0 0-2.6-6.66c-1.73-1.46-3-1.93-6.85-2.53l-5.52-.87a16.43 16.43 0 0 1-8.45-3.46 10.78 10.78 0 0 1-3.73-8.72c0-7.92 5.66-13 14.71-13a18.73 18.73 0 0 1 13.63 5.16l-2.33 2.33A15.4 15.4 0 0 0 92.16 127c-6.85 0-11 3.79-11 9.78 0 2.73.8 4.79 2.46 6.19a15.11 15.11 0 0 0 7.05 2.93l5.12.8c4.46.67 6.46 1.46 8.45 3.13a11.64 11.64 0 0 1 4.16 9.17c0 8-6.12 13.11-15.97 13.11zm46.32-3.53a13 13 0 0 1-17.84 0c-3.39-3.39-4-8.32-4-12.91s.6-9.52 4-12.91a13 13 0 0 1 17.84 0c3.39 3.39 4 8.32 4 12.91s-.61 9.52-4 12.91zM136.48 145a9.48 9.48 0 0 0-13.31 0c-2.66 2.66-2.86 7-2.86 10.71s.2 8.05 2.86 10.71a9.48 9.48 0 0 0 13.31 0c2.66-2.66 2.86-7 2.86-10.71s-.19-8.09-2.86-10.71zM166 172.11c-8.72 0-14.11-6.26-14.11-16.44s5.39-16.44 14.11-16.44c4.39 0 7.12 1.13 10.58 4.92l-2.33 2.13c-2.73-3.06-4.86-4.06-8.25-4.06a9.93 9.93 0 0 0-8.52 4.26c-1.6 2.33-2.2 4.86-2.2 9.18s.6 6.85 2.2 9.18a9.93 9.93 0 0 0 8.52 4.26c3.39 0 5.52-1 8.25-4.06l2.33 2.13c-3.43 3.83-6.15 4.94-10.58 4.94zm20.2-43.59v-4.19h4.19v4.19zm.4 43.19v-32.08h3.4v32.08zm17.83-15.31c0 8.12 3.66 12.65 10.45 12.65 3.79 0 6.12-1.13 8.85-3.86l2.53 2c-3.26 3.26-6.26 4.92-11.58 4.92-8.85 0-13.64-5.72-13.64-16.44 0-10.32 4.79-16.44 12.84-16.44s12.84 5.86 12.84 15.64v1.53zm17.77-8.78a9.11 9.11 0 0 0-16.64 0 14.86 14.86 0 0 0-1.13 6.06h18.9a14.86 14.86 0 0 0-1.13-6.06zm24.03 24.09c-5.06 0-7.72-3.53-7.72-8.39v-21.16h-4.39v-2.53h4.39v-10.25h3.39v10.25h7.25v2.53h-7.25v21.23c0 3.33 1.53 5.32 4.92 5.32h2.33v3zm19.43 8.72a8.25 8.25 0 0 1-2.2 3.73 8.72 8.72 0 0 1-6.06 2.06h-1.6v-3h1.26c3.66 0 4.66-1.2 5.86-4.39l2.6-7.12-11.71-32.08h3.73l9.65 28.08 9.65-28.08h3.73z" fill="#303a52"/><path d="M52.55 52.55H0V0h52.55zM5.07 47.49h42.42V5.07H5.07z" fill="#574b90"/><path d="M52.55 113.83H0V61.28h52.55zm-47.48-5.07h42.42V66.34H5.07z" fill="#9e579d"/><path d="M52.55 175.11H0v-52.56h52.55zM5.07 170h42.42v-42.38H5.07z" fill="#fc85ae"/></svg>