<svg width="75" height="75" xmlns="http://www.w3.org/2000/svg" viewBox="0 0 74.7 74.7"><path d="M37.3.6C17.1.6.6 17.1.6 37.3S17.1 74 37.3 74 74 57.5 74 37.3 57.6.6 37.3.6zm0 71C18.4 71.6 3 56.2 3 37.3S18.4 3.1 37.3 3.1s34.3 15.4 34.3 34.3-15.4 34.2-34.3 34.2z"/><path d="M37.3 74.7C16.7 74.7 0 57.9 0 37.3 0 16.7 16.7 0 37.3 0c20.6 0 37.3 16.7 37.3 37.3.1 20.6-16.7 37.4-37.3 37.4zm0-73.5C17.4 1.2 1.2 17.4 1.2 37.3s16.2 36.1 36.1 36.1 36.1-16.2 36.1-36.1S57.2 1.2 37.3 1.2zm0 71c-19.2 0-34.9-15.6-34.9-34.9S18.1 2.4 37.3 2.4 72.2 18 72.2 37.3 56.6 72.2 37.3 72.2zm0-68.5C18.8 3.7 3.7 18.8 3.7 37.3 3.7 55.9 18.8 71 37.3 71 55.9 71 71 55.9 71 37.3 71 18.8 55.9 3.7 37.3 3.7z"/><path d="M54.9 27.6l-5.2-5.2c-.2-.2-.6-.2-.8 0L30.6 40.6l-4.8-4.8c-.2-.2-.6-.2-.8 0L19.8 41c-.2.2-.2.6 0 .8l10.4 10.4c.1.1.3.2.4.2.2 0 .3-.1.4-.2l23.9-23.9c.1-.1.2-.3.2-.4 0 0-.1-.2-.2-.3z"/></svg>