<svg width="75" height="75" xmlns="http://www.w3.org/2000/svg" viewBox="0 0 74.8 74.8"><path d="M45.9 24c-3 0-6.5 1.6-8.6 5.9-2.1-4.3-5.6-5.9-8.6-5.9-4.7 0-9.6 4-9.6 10.6 0 9.7 16.8 22 17.5 22.5.2.2.5.2.7.2.3 0 .5-.1.7-.2.7-.5 17.5-12.8 17.5-22.5 0-6.6-4.9-10.6-9.6-10.6zm-8.6 30.6c-5-3.8-15.8-13.3-15.8-20 0-5.1 3.7-8.1 7.2-8.1s6.3 2.8 7.4 7.4c.1.5.6.9 1.2.9s1.1-.4 1.2-.9c1.1-4.6 3.9-7.4 7.4-7.4s7.2 3 7.2 8.1c0 6.7-10.8 16.2-15.8 20z"/><path d="M37.3 57.9c-.4 0-.8-.1-1.1-.3-1.8-1.3-17.7-13.2-17.7-23 0-7 5.2-11.2 10.2-11.2 3.5 0 6.6 1.9 8.6 5.2 2-3.3 5.1-5.2 8.6-5.2 5 0 10.2 4.2 10.2 11.2 0 10-17 22.5-17.7 23-.3.2-.7.3-1.1.3zm-8.5-33.3c-4.4 0-9 3.7-9 10 0 9.3 16.5 21.5 17.2 22 .2.2.5.2.7 0 .7-.5 17.2-12.6 17.2-22 0-6.3-4.6-10-9-10-3.3 0-6.3 2.1-8 5.5l-.5 1.1-.5-1.1c-1.8-3.4-4.8-5.5-8.1-5.5zm8.5 30.7l-.3-.2c-1.6-1.2-16-12.3-16-20.5 0-5.5 4-8.8 7.8-8.8s6.8 2.9 8 7.9c.1.6 1.1.6 1.2 0 1.2-4.9 4.2-7.9 8-7.9s7.8 3.3 7.8 8.8c0 8.1-14.4 19.2-16 20.5l-.5.2zm-8.5-28.2c-3.2 0-6.6 2.8-6.6 7.5 0 6 9.7 15 15.1 19.2 5.8-4.5 15.1-13.2 15.1-19.2 0-4.7-3.3-7.5-6.6-7.5-3.2 0-5.7 2.6-6.8 6.9-.2.8-.9 1.4-1.8 1.4s-1.6-.6-1.8-1.4c-.9-4.3-3.4-6.9-6.6-6.9z"/><path d="M37.3.6C17.1.6.6 17.1.6 37.3S17.1 74 37.3 74 74 57.5 74 37.3 57.6.6 37.3.6zm0 71C18.4 71.6 3 56.2 3 37.3S18.4 3.1 37.3 3.1s34.3 15.4 34.3 34.3-15.4 34.2-34.3 34.2z"/><path d="M37.3 74.7C16.7 74.7 0 57.9 0 37.3 0 16.7 16.7 0 37.3 0c20.6 0 37.3 16.7 37.3 37.3.1 20.6-16.7 37.4-37.3 37.4zm0-73.5C17.4 1.2 1.2 17.4 1.2 37.3s16.2 36.1 36.1 36.1 36.1-16.2 36.1-36.1S57.2 1.2 37.3 1.2zm0 71c-19.2 0-34.9-15.6-34.9-34.9S18.1 2.4 37.3 2.4 72.2 18 72.2 37.3 56.6 72.2 37.3 72.2zm0-68.5C18.8 3.7 3.7 18.8 3.7 37.3 3.7 55.9 18.8 71 37.3 71 55.9 71 71 55.9 71 37.3 71 18.8 55.9 3.7 37.3 3.7z"/></svg>