<svg data-name="Layer 1" xmlns="http://www.w3.org/2000/svg" viewBox="0 0 283.95 100.03"><title>giftaid it</title><path d="M90.37 31.01c2.73-1 5.5-2 8.19-3.13 3-1.28 6-2.75 9-4.1a2.25 2.25 0 0 0 1.39-1.58 8.75 8.75 0 0 1 1.34-2.83 3.19 3.19 0 0 1 4-.91 3.23 3.23 0 0 1 1.15 3.88 15.82 15.82 0 0 1-2 3.4c-1.54 2-1.67 4.51-2.36 6.81-.29 1-.44 2-.71 3.25 1.21-.35 2.34-.62 3.44-1 4.57-1.6 9.15-3.18 13.68-4.88 1.71-.64 3.27-1.65 5-2.36a2.26 2.26 0 0 1 3 1 2.78 2.78 0 0 1-1.12 3.09 21.63 21.63 0 0 1-7.18 3.09c-5.5 1.51-11 2.91-16.54 4.35a1.89 1.89 0 0 0-1.64 1.54c-1.19 4.53-2.6 9-3.7 13.55a15.59 15.59 0 0 0-.3 5.33c.25 2.26 1.77 2.76 4 1.48a17.88 17.88 0 0 0 7.9-8.62c.75-1.73 3.84-2.18 5-.66a2.16 2.16 0 0 1 0 2 30.36 30.36 0 0 1-3.32 4.69 27 27 0 0 1-7.32 6.17c-2 1.07-4.12 1.88-6.52 1.23a4.94 4.94 0 0 1-3.37-3 11.13 11.13 0 0 1-.41-6.32c.95-5.18 2.06-10.33 3.12-15.53-1.31.53-2.63 1.08-4 1.6-.94.37-1.89.49-2.4-.62a2.42 2.42 0 0 1 1-3.22 36.47 36.47 0 0 1 4-1.2 8 8 0 0 0 1.37-.28 1.9 1.9 0 0 0 1.09-1c.89-2.89 1.7-5.81 2.58-8.91a8.21 8.21 0 0 0-1 .3c-4.19 2-8.37 4-12.56 5.92-1.38.65-2.83 1.17-4.18 1.86a4.5 4.5 0 0 0-2.45 2.9c-1.62 6.32-3.26 12.63-4.8 19q-1.08 5.28-2.1 10.71c-.54 2.85-.78 5.76-1.32 8.61-.38 2 .12 3.91.2 5.86.07 1.59.08 3.33-1.25 4.64a3.28 3.28 0 0 1-5.63-1.24 9.71 9.71 0 0 1-.18-5.87c2.64-10 5.34-20 8-30q1.61-6 3.18-12a.57.57 0 0 0-.07-.33c-2.37 1.29-4.73 2.59-7.1 3.86a6 6 0 0 1-1.83.77c-.81.12-1.95.32-2.41-.1a3.45 3.45 0 0 1-1-3.35c.35-1.59 1.7-1.75 2.89-1.94a29.17 29.17 0 0 0 10.89-4.52 1.47 1.47 0 0 0 .57-.66c1.7-4.49 3.26-9 5.09-13.48 2-4.85 4.22-9.63 7.58-13.74 2-2.4 4.38-4.33 7.63-4.5s5.8 1 6.8 4.85c.47 1.8.68 3.68-.65 5.3a2.21 2.21 0 0 1-2.32 1c-1-.3-2.24-.47-2.3-2a8.52 8.52 0 0 0-.22-1.16c-.34-1.94-1.28-2.48-3.19-1.9-2.67.8-4.35 2.72-5.71 5-3 5-5 10.53-6.93 16l-1.27 3.6zM45.4 51.19c-1.66 3-3.13 6.1-5 8.94-2.08 3.24-4.76 6-8.53 7.31-4.32 1.5-8.17-.1-9.89-4.12a10 10 0 0 1 0-6.83 22.24 22.24 0 0 1 5.15-9 34 34 0 0 1 10.68-8 8.34 8.34 0 0 1 6.7-.64 1.13 1.13 0 0 0 1-.13c.83-.88 1.75-1.44 2.94-.87a3.38 3.38 0 0 1 2 3.16 12.26 12.26 0 0 1-.5 3.71 15.37 15.37 0 0 0-.69 5 75.88 75.88 0 0 1-3.77 25.19 42.08 42.08 0 0 1-8 13.86 32.27 32.27 0 0 1-16.88 10.38 29.14 29.14 0 0 1-10.08.73 18.28 18.28 0 0 1-8.52-2.73c-2.23-1.47-2.69-5-.93-6.53 1.45-1.26 3.85-1.21 5.72.61a12 12 0 0 0 5.73 3.54 17.29 17.29 0 0 0 7.74-.33 28.43 28.43 0 0 0 12-6.68c6.35-5.52 9.74-12.64 11.31-20.75.54-2.85.87-5.74 1.2-8.63.23-2.37.42-4.81.62-7.19zm-4.54-9.38a6.65 6.65 0 0 0-2.11.88c-2.3 2.16-4.59 4.32-6.74 6.67a18.2 18.2 0 0 0-4.69 9.65 3.22 3.22 0 0 0 3.93 3.64c2-.37 3.26-1.85 4.61-3.21 3.91-3.94 6.72-8.44 7.49-14.06a3 3 0 0 0-2.34-3.53h-.14zm212.57-11.94c-1 1.7-2 3.45-3.06 5.11-3.36 5.1-6.68 10.23-10.22 15.21a12.38 12.38 0 0 1-5.67 4.62c-3.76 1.43-7.65-1.56-8-5.68-.46-4.85.77-9.41 2-14 .69-2.68 1.41-5.36 2.2-8a2.9 2.9 0 0 1 1.06-1.37 3.86 3.86 0 0 1 4.12 0c.84.74 1.06 2.86.51 4.11-1.14 2.62-2.36 5.21-3.32 7.89a23.26 23.26 0 0 0-1.42 9 8.21 8.21 0 0 0 .7 2.81c.51 1.17 1.29 1.47 2.26.72a21 21 0 0 0 4.1-3.86c4.56-6.17 9-12.45 13.65-19-1.47.25-2.55.52-3.63.6-1.29.1-1.38-.08-1.06-1.32.57-2.22.93-2.53 3.17-2.74s2.33-.25 2.89-2.61a1.56 1.56 0 0 1 .52-.9c1.34-.88 1.42-2.3 1.6-3.65.36-2.65.73-5.3 1-8s1.76-3.34 3.77-3.09 3 2.09 2.35 4.31c-.46 1.53-1.19 3-1.6 4.51-.61 2.25-1.07 4.55-1.54 6.84a1.33 1.33 0 0 0 1.58 1.33c2.72-.56 5.45-1.07 8.13-1.77 3.81-1 7.57-2.16 11.35-3.27a2.22 2.22 0 0 1 2.8 1.08 3 3 0 0 1-2.49 4.26c-4.51.35-9 .87-13.51 1.41-2.45.3-4.87.79-7.3 1.19a1.88 1.88 0 0 0-1.74 1.78c-.31 2.49-.72 5-1 7.48-.38 4.25-.68 8.51-.94 12.77a6.12 6.12 0 0 0 .46 2.4c.45 1.22 1.25 1.64 2.41 1.09a27.75 27.75 0 0 0 4.6-2.71 20.41 20.41 0 0 0 3.26-3.25 11.33 11.33 0 0 0 1.26-2.36 2.5 2.5 0 0 1 2.65-1.32c.88 0 1.86.17 2.24 1.19a2.46 2.46 0 0 1-.71 2.82 59.82 59.82 0 0 1-5.82 4.61 48.44 48.44 0 0 1-7.58 4.41c-4.3 1.86-6.1-.41-6.84-4.07a30 30 0 0 1-.3-9.93c.4-3.08.65-6.19 1-9.28a7 7 0 0 1 .26-1.33zm-86.52 16.14c-1.9 3.09-3.64 6-5.48 8.86a14.06 14.06 0 0 1-5.85 5.5c-1.88.86-5.37 1-6.59-1a13.2 13.2 0 0 1-1.66-4.36 59 59 0 0 1-.42-6.49l-2 4a26.21 26.21 0 0 1-5.59 7.84c-2.52 2.29-5.45 3.2-8.28 1a5.42 5.42 0 0 1-2-4.19 16.44 16.44 0 0 1 1.54-7.55 39.71 39.71 0 0 1 7.43-11.7 65.65 65.65 0 0 1 6.41-6.15 3.88 3.88 0 0 1 5.09-.37 1.37 1.37 0 0 0 .64 0c1.71-.1 2.75.69 2.8 2.42a30.24 30.24 0 0 1-.31 4.25c-.25 2.22-.59 4.44-.85 6.66a30.47 30.47 0 0 0-.44 4.82 40.93 40.93 0 0 0 .81 6.53c.29 1.39 1.68 1.73 2.95.88a15.28 15.28 0 0 0 4.37-5q4.32-7.13 8.52-14.34c.67-1.15 1.12-2.42 1.72-3.61a2.4 2.4 0 0 1 3.29-1c1.59.69 2 1.44 1.36 3s-1.4 2.8-1.94 4.26a23.61 23.61 0 0 0-1.42 8.04c0 1-.27 2.06-.2 3.07a42.57 42.57 0 0 0 .78 6.67 2.46 2.46 0 0 1-1.41 3.07c-1.66.61-2.85.15-3.13-1.5a21.71 21.71 0 0 1-.39-7.76 21 21 0 0 0 .06-3.11c.03-.85.11-1.74.19-2.74zm-18-9.31l-.24-.08a2.12 2.12 0 0 0 0-.71 4.1 4.1 0 0 0-.79-1.58 2.17 2.17 0 0 0-1.36.45 9.76 9.76 0 0 0-1.51 1.23 35.61 35.61 0 0 0-9.82 16.11 6.59 6.59 0 0 0 0 4.9c.3.64.75.91 1.34.44a12.6 12.6 0 0 0 2.28-2.06 72.34 72.34 0 0 0 8.65-13.92 47.94 47.94 0 0 0 1.49-4.76zm49.91 7.31c-1 1.9-2.06 4.2-3.34 6.39-1.79 3.08-3.82 6-7.24 7.53a7.26 7.26 0 0 1-5.37.55c-1.8-.64-2.6-2.17-2.95-4a18 18 0 0 1 1.46-10.47 31.43 31.43 0 0 1 8.63-11.49c2-1.77 4.05-3.63 6.82-4.25a14.61 14.61 0 0 1 1.94-.43c2.48-.21 2.61-.29 3.18-2.57.91-3.59 1.83-7.19 2.73-10.78a13.42 13.42 0 0 0 .41-2.18 2.74 2.74 0 0 1 2.32-2.62c1.43-.28 3.13-.5 4.13.93a3.49 3.49 0 0 1 .39 2.53c-1.1 4.58-3.5 8.61-5.52 12.8a28.93 28.93 0 0 0-3.23 12.77c0 1.94-.21 3.89-.21 5.83a6.7 6.7 0 0 0 2.52 5.68 4.32 4.32 0 0 1 1.52 2.31c.41 2-.87 3.31-2.94 3.36-2.36.06-3.25-.54-3.71-2.88-.64-3.08-1.08-6.19-1.54-9.01zm-.7-12.23a46.33 46.33 0 0 0-3.72 2.8 37.53 37.53 0 0 0-7.1 8.53c-1.38 2.32-2.59 4.73-2.61 7.56 0 1 .12 2.12 1.08 2.42a2.87 2.87 0 0 0 2.36-.6 43.73 43.73 0 0 0 4.82-5 33.59 33.59 0 0 0 6.44-11.89 3.49 3.49 0 0 0 .11-1.89 8.33 8.33 0 0 0-1.38-1.9zM63.37 36.94c2.62-.23 3.55 1.9 2.22 4.13a33.92 33.92 0 0 0-3.42 8.18 18.62 18.62 0 0 0-.34 2.93c-.24 2.07-.36 4.16-.77 6.2a8.15 8.15 0 0 0 .3 4.29 2.9 2.9 0 0 1-1.27 3.54c-1.53.63-3.52.13-4.11-1.21a9.44 9.44 0 0 1-.62-2.84 23.89 23.89 0 0 1 1.34-9.15l4.24-14.26c.46-1.6.75-1.81 2.43-1.81zm6.64-11.8c0 1.12.08 2.25 0 3.36-.07.76-.4 1.53-1.43 1.23a3.52 3.52 0 0 1-1.85-.87 32.37 32.37 0 0 1-2.72-4.78c-.64-1.42.17-2.89 1.73-3.61a3 3 0 0 1 3.65 1.36 24.79 24.79 0 0 1 .85 3.25zm107.83-1.4a1.2 1.2 0 0 1-1.58-1.21 3.63 3.63 0 0 0-.83-1.25 5.42 5.42 0 0 1-1-1.94c-.13-1.37.3-2.19 2.3-2.1a3.7 3.7 0 0 1 3.65 4.77 2.28 2.28 0 0 1-2.54 1.73zm58.95-13.67a4.56 4.56 0 0 1 3.79 1.52c.89.91.69 1.72-.39 2.31a6.17 6.17 0 0 0-1.41 1 2.31 2.31 0 0 1-2.63.52 2.19 2.19 0 0 1-1.52-2.41 13.16 13.16 0 0 1 .32-2 1.4 1.4 0 0 1 1.7-1z" data-name="Layer 1"/></svg>