<svg xmlns="http://www.w3.org/2000/svg" viewBox="0 0 100 125"><path d="M38.1 37.3v-9.8c0-8.1 6.6-14.6 14.6-14.6 3.9 0 7.6 1.5 10.3 4.3 2.8 2.8 4.3 6.4 4.3 10.3v9.8h9.1c.8 0 1.5.1 2.3.2v-10c0-6.9-2.7-13.4-7.6-18.3-4.9-4.9-11.4-7.6-18.3-7.6-14.3 0-25.9 11.6-25.9 25.9v10c.7-.1 1.5-.2 2.3-.2h8.9zm38.3 3H29c-5.2 0-9.4 4.2-9.4 9.4v39.4c0 5.2 4.2 9.4 9.4 9.4h47.3c5.2 0 9.4-4.2 9.4-9.4V49.6c0-5.1-4.2-9.3-9.3-9.3zm-20.3 31v7.2c0 1.9-1.6 3.5-3.5 3.5s-3.5-1.6-3.5-3.5v-7.2C47.3 70.1 46 68 46 65.6a6.7 6.7 0 0 1 13.4 0c0 2.4-1.3 4.5-3.3 5.7z"/></svg>