<svg xmlns="http://www.w3.org/2000/svg" viewBox="0 0 23.3 20.7"><path d="M0 14c0-2.1.5-4.3 1.4-6.7 1-2.4 2.5-4.8 4.5-7.3l2.5 1.8c-.4.4-.8 1-1.2 1.8S6.4 5.1 6 6.1 5.3 7.9 5.1 9s-.4 2-.4 2.9c.3-.1.6-.2.8-.2h.6c.6 0 1.1.1 1.6.2.5.2 1 .4 1.4.8s.7.8 1 1.3.4 1.2.4 1.9c0 .6-.1 1.3-.3 1.8-.2.6-.6 1.1-1 1.5s-.9.8-1.5 1c-.6.3-1.2.4-2 .4-1 0-1.8-.2-2.5-.5s-1.3-.8-1.8-1.4c-.5-.6-.8-1.3-1.1-2.2-.2-.7-.3-1.6-.3-2.5zm12.8 0c0-2.1.5-4.3 1.4-6.7.9-2.4 2.4-4.8 4.5-7.3l2.5 1.8c-.3.4-.7 1-1.1 1.8s-.8 1.6-1.2 2.5-.8 1.8-1 2.9-.4 2-.4 2.9c.3-.1.6-.2.8-.2h.6c.6 0 1.1.1 1.6.2.5.2 1 .4 1.4.8s.7.8 1 1.3.4 1.2.4 1.9c0 .6-.1 1.3-.3 1.8-.2.6-.6 1.1-1 1.5s-.9.8-1.5 1c-.6.3-1.2.4-2 .4-1 0-1.8-.2-2.5-.5s-1.3-.8-1.8-1.4c-.5-.6-.8-1.3-1.1-2.2-.2-.7-.3-1.6-.3-2.5z" fill="#52545b"/></svg>