<?xml version="1.0" encoding="utf-8"?>
<!-- Generator: Adobe Illustrator 19.2.0, SVG Export Plug-In . SVG Version: 6.00 Build 0)  -->
<svg width="75" height="75" version="1.1" id="Layer_1" xmlns="http://www.w3.org/2000/svg" xmlns:xlink="http://www.w3.org/1999/xlink" x="0px" y="0px"
	 viewBox="0 0 74.8 74.8" style="enable-background:new 0 0 74.8 74.8;" xml:space="preserve">
<g>
	<path style="fill:#000;" d="M45.9,24c-3,0-6.5,1.6-8.6,5.9c-2.1-4.3-5.6-5.9-8.6-5.9c-4.7,0-9.6,4-9.6,10.6
		c0,9.7,16.8,22,17.5,22.5c0.2,0.2,0.5,0.2,0.7,0.2c0.3,0,0.5-0.1,0.7-0.2c0.7-0.5,17.5-12.8,17.5-22.5C55.5,28,50.6,24,45.9,24z
		 M37.3,54.6c-5-3.8-15.8-13.3-15.8-20c0-5.1,3.7-8.1,7.2-8.1s6.3,2.8,7.4,7.4c0.1,0.5,0.6,0.9,1.2,0.9c0.6,0,1.1-0.4,1.2-0.9
		c1.1-4.6,3.9-7.4,7.4-7.4s7.2,3,7.2,8.1C53.1,41.3,42.3,50.8,37.3,54.6z"/>
	<path style="fill:#000;" d="M37.3,57.9c-0.4,0-0.8-0.1-1.1-0.3c-1.8-1.3-17.7-13.2-17.7-23c0-7,5.2-11.2,10.2-11.2
		c3.5,0,6.6,1.9,8.6,5.2c2-3.3,5.1-5.2,8.6-5.2c5,0,10.2,4.2,10.2,11.2c0,10-17,22.5-17.7,23C38.1,57.8,37.7,57.9,37.3,57.9z
		 M28.8,24.6c-4.4,0-9,3.7-9,10c0,9.3,16.5,21.5,17.2,22c0.2,0.2,0.5,0.2,0.7,0c0.7-0.5,17.2-12.6,17.2-22c0-6.3-4.6-10-9-10
		c-3.3,0-6.3,2.1-8,5.5l-0.5,1.1l-0.5-1.1C35.1,26.7,32.1,24.6,28.8,24.6z M37.3,55.3L37,55.1c-1.6-1.2-16-12.3-16-20.5
		c0-5.5,4-8.8,7.8-8.8s6.8,2.9,8,7.9c0.1,0.6,1.1,0.6,1.2,0c1.2-4.9,4.2-7.9,8-7.9s7.8,3.3,7.8,8.8c0,8.1-14.4,19.2-16,20.5
		L37.3,55.3z M28.8,27.1c-3.2,0-6.6,2.8-6.6,7.5c0,6,9.7,15,15.1,19.2c5.8-4.5,15.1-13.2,15.1-19.2c0-4.7-3.3-7.5-6.6-7.5
		c-3.2,0-5.7,2.6-6.8,6.9c-0.2,0.8-0.9,1.4-1.8,1.4c-0.9,0-1.6-0.6-1.8-1.4C34.5,29.7,32,27.1,28.8,27.1z"/>
</g>
<g>
	<path style="fill:#000;" d="M37.3,0.6C17.1,0.6,0.6,17.1,0.6,37.3s16.5,36.7,36.7,36.7s36.7-16.5,36.7-36.7S57.6,0.6,37.3,0.6z
		 M37.3,71.6c-18.9,0-34.3-15.4-34.3-34.3S18.4,3.1,37.3,3.1s34.3,15.4,34.3,34.3S56.2,71.6,37.3,71.6z"/>
	<path style="fill:#000;" d="M37.3,74.7C16.7,74.7,0,57.9,0,37.3C0,16.7,16.7,0,37.3,0c20.6,0,37.3,16.7,37.3,37.3
		C74.7,57.9,57.9,74.7,37.3,74.7z M37.3,1.2C17.4,1.2,1.2,17.4,1.2,37.3s16.2,36.1,36.1,36.1s36.1-16.2,36.1-36.1S57.2,1.2,37.3,1.2
		z M37.3,72.2c-19.2,0-34.9-15.6-34.9-34.9S18.1,2.4,37.3,2.4s34.9,15.6,34.9,34.9S56.6,72.2,37.3,72.2z M37.3,3.7
		C18.8,3.7,3.7,18.8,3.7,37.3C3.7,55.9,18.8,71,37.3,71C55.9,71,71,55.9,71,37.3C71,18.8,55.9,3.7,37.3,3.7z"/>
</g>
</svg>
