<?xml version="1.0" encoding="utf-8"?>
<!-- Generator: Adobe Illustrator 19.2.0, SVG Export Plug-In . SVG Version: 6.00 Build 0)  -->
<svg width="75" height="75" version="1.1" id="Layer_1" xmlns="http://www.w3.org/2000/svg" xmlns:xlink="http://www.w3.org/1999/xlink" x="0px" y="0px"
	 viewBox="0 0 74.7 74.7" style="enable-background:new 0 0 74.7 74.7;" xml:space="preserve">
<g>
	<g>
		<path style="fill:#000;" d="M37.3,0.6C17.1,0.6,0.6,17.1,0.6,37.3s16.5,36.7,36.7,36.7s36.7-16.5,36.7-36.7S57.6,0.6,37.3,0.6z
			 M37.3,71.6c-18.9,0-34.3-15.4-34.3-34.3S18.4,3.1,37.3,3.1s34.3,15.4,34.3,34.3S56.2,71.6,37.3,71.6z"/>
		<path style="fill:#000;" d="M37.3,74.7C16.7,74.7,0,57.9,0,37.3C0,16.7,16.7,0,37.3,0c20.6,0,37.3,16.7,37.3,37.3
			C74.7,57.9,57.9,74.7,37.3,74.7z M37.3,1.2C17.4,1.2,1.2,17.4,1.2,37.3s16.2,36.1,36.1,36.1s36.1-16.2,36.1-36.1
			S57.2,1.2,37.3,1.2z M37.3,72.2c-19.2,0-34.9-15.6-34.9-34.9S18.1,2.4,37.3,2.4s34.9,15.6,34.9,34.9S56.6,72.2,37.3,72.2z
			 M37.3,3.7C18.8,3.7,3.7,18.8,3.7,37.3C3.7,55.9,18.8,71,37.3,71C55.9,71,71,55.9,71,37.3C71,18.8,55.9,3.7,37.3,3.7z"/>
	</g>
	<g>
		<path style="fill:#000;" d="M54.9,27.6l-5.2-5.2c-0.2-0.2-0.6-0.2-0.8,0L30.6,40.6l-4.8-4.8c-0.2-0.2-0.6-0.2-0.8,0L19.8,41
			c-0.2,0.2-0.2,0.6,0,0.8l10.4,10.4c0.1,0.1,0.3,0.2,0.4,0.2c0.2,0,0.3-0.1,0.4-0.2l23.9-23.9c0.1-0.1,0.2-0.3,0.2-0.4
			C55.1,27.9,55,27.7,54.9,27.6z"/>
	</g>
</g>
</svg>
