<?xml version="1.0" encoding="utf-8"?>
<!-- Generator: Adobe Illustrator 19.2.0, SVG Export Plug-In . SVG Version: 6.00 Build 0)  -->
<svg width="13" height="19" version="1.1" id="Layer_1" xmlns="http://www.w3.org/2000/svg" xmlns:xlink="http://www.w3.org/1999/xlink" x="0px" y="0px"
	 viewBox="0 0 13 18.6" style="enable-background:new 0 0 13 18.6;" xml:space="preserve">
<path style="fill:#000;" d="M11.6,7.4v-2C11.6,2.8,9.6,0,6.5,0S1.4,2.8,1.4,5.4v2H0v11.2h13V7.4H11.6z M7.5,12.9
	c-0.1,0.1-0.1,0.2-0.2,0.3v2.4c0,0.5-0.4,0.9-0.8,0.9s-0.8-0.4-0.8-0.9v-2.4c-0.1-0.1-0.1-0.2-0.2-0.3c-0.3-0.3-0.4-0.6-0.4-1
	c0-0.8,0.6-1.4,1.4-1.4c0.8,0,1.4,0.6,1.4,1.4C8,12.3,7.8,12.6,7.5,12.9z M10.1,7.4H2.9v-2c0-1.9,1.4-3.9,3.6-3.9s3.6,2,3.6,3.9V7.4
	z"/>
</svg>
