<?xml version="1.0" encoding="utf-8"?>
<!-- Generator: Adobe Illustrator 19.1.0, SVG Export Plug-In . SVG Version: 6.00 Build 0)  -->
<svg version="1.1" id="Layer_1" xmlns="http://www.w3.org/2000/svg" xmlns:xlink="http://www.w3.org/1999/xlink" x="0px" y="0px"
	 viewBox="0 0 23.3 20.7" style="enable-background:new 0 0 23.3 20.7;" xml:space="preserve">
<g>
	<path style="fill:#52545B;" d="M0,14c0-2.1,0.5-4.3,1.4-6.7C2.4,4.9,3.9,2.5,5.9,0l2.5,1.8C8,2.2,7.6,2.8,7.2,3.6S6.4,5.1,6,6.1
		S5.3,7.9,5.1,9s-0.4,2-0.4,2.9c0.3-0.1,0.6-0.2,0.8-0.2c0.2,0,0.4,0,0.6,0c0.6,0,1.1,0.1,1.6,0.2c0.5,0.2,1,0.4,1.4,0.8
		s0.7,0.8,1,1.3s0.4,1.2,0.4,1.9c0,0.6-0.1,1.3-0.3,1.8c-0.2,0.6-0.6,1.1-1,1.5s-0.9,0.8-1.5,1c-0.6,0.3-1.2,0.4-2,0.4
		c-1,0-1.8-0.2-2.5-0.5c-0.7-0.3-1.3-0.8-1.8-1.4c-0.5-0.6-0.8-1.3-1.1-2.2C0.1,15.8,0,14.9,0,14z M12.8,14c0-2.1,0.5-4.3,1.4-6.7
		c0.9-2.4,2.4-4.8,4.5-7.3l2.5,1.8c-0.3,0.4-0.7,1-1.1,1.8s-0.8,1.6-1.2,2.5S18.1,7.9,17.9,9s-0.4,2-0.4,2.9
		c0.3-0.1,0.6-0.2,0.8-0.2c0.2,0,0.4,0,0.6,0c0.6,0,1.1,0.1,1.6,0.2c0.5,0.2,1,0.4,1.4,0.8s0.7,0.8,1,1.3s0.4,1.2,0.4,1.9
		c0,0.6-0.1,1.3-0.3,1.8c-0.2,0.6-0.6,1.1-1,1.5s-0.9,0.8-1.5,1c-0.6,0.3-1.2,0.4-2,0.4c-1,0-1.8-0.2-2.5-0.5
		c-0.7-0.3-1.3-0.8-1.8-1.4c-0.5-0.6-0.8-1.3-1.1-2.2C12.9,15.8,12.8,14.9,12.8,14z"/>
</g>
</svg>
