<?xml version="1.0" encoding="UTF-8"?>
<svg width="21px" height="21px" viewBox="0 0 21 21" version="1.1" xmlns="http://www.w3.org/2000/svg" xmlns:xlink="http://www.w3.org/1999/xlink">
    <title>Search Icon</title>
    <defs></defs>
    <g id="Symbols-Visual" stroke="none" stroke-width="1" fill="none" fill-rule="evenodd">
        <g id="Header-desktop" transform="translate(-936.000000, -15.000000)" fill="#303A52">
            <path d="M939.061608,23.2129331 C939.061608,20.3725624 941.372562,18.0616076 944.212933,18.0616076 C947.053304,18.0616076 949.364259,20.3725624 949.364259,23.2129331 C949.364259,26.0533038 947.053304,28.3642586 944.212933,28.3642586 C941.372562,28.3642586 939.061608,26.0533038 939.061608,23.2129331 L939.061608,23.2129331 Z M956.663522,33.1119239 L951.152008,27.6004093 C951.958552,26.3304321 952.425866,24.8252452 952.425866,23.2129331 C952.425866,18.6841759 948.74169,15 944.212933,15 C939.684176,15 936,18.6841759 936,23.2129331 C936,27.7416904 939.684176,31.4258662 944.212933,31.4258662 C945.745289,31.4258662 947.180612,31.0035755 948.409447,30.2700007 L953.957446,35.818 L956.663522,33.1119239 Z" id="Fill-1"></path>
        </g>
    </g>
</svg>
